#!OML:ASF X:\für Bonn\!DataBase\2005_08_11_Bastian_Final\c3d\Bastian.ASF
:FULLY-SPECIFIED
:DEGREES
231
root 1.2422 17.0635 -4.08372 533.857 38.693 -176.554
lowerback 29.8361 -7.52492 5.93997
upperback 18.0038 -3.72469 5.65737
thorax 3.9996 0.0298855 3.81557
lowerneck -16.2581 -12.0351 -20.0665
upperneck -8.46351 -12.1418 31.0653
head 4.05882 -4.59275 12.4409
rclavicle 4.45278e-014 7.31528e-014
rhumerus -22.5907 9.78101 -81.7718
rradius 55.9369
rwrist 11.3298
rhand -19.5862 5.35403
rfingers 7.12502
rthumb 6.73926 -24.5187
lclavicle 4.45278e-014 7.31528e-014
lhumerus -8.2015 -25.4274 92.8601
lradius 43.2267
lwrist 7.35211
lhand -17.7742 -10.839
lfingers 7.12502
lthumb 8.48829 18.9704
rfemur -21.1026 -4.09194 23.4026
rtibia 42.8652
rfoot -12.8901 0.434254
rtoes -23.4008
lfemur -0.725539 -1.54557 -9.42421
ltibia 70.8712
lfoot 1.15425 -5.48107
ltoes -35.2941
232
root 1.32976 17.071 -4.13717 533.689 38.62 -176.56
lowerback 29.8072 -7.49324 5.99632
upperback 18.045 -3.65821 5.66817
thorax 4.052 0.0767898 3.78206
lowerneck -16.3352 -12.1087 -20.1658
upperneck -8.3836 -12.2382 31.0248
head 4.11929 -4.63094 12.4232
rclavicle 7.15625e-014 -8.5875e-014
rhumerus -22.4548 10.0475 -81.8641
rradius 56.4004
rwrist 11.4222
rhand -19.5017 5.35334
rfingers 7.12502
rthumb 6.8209 -24.5168
lclavicle 7.15625e-014 -8.5875e-014
lhumerus -8.32656 -24.8505 92.7704
lradius 42.0516
lwrist 7.80001
lhand -17.6611 -10.902
lfingers 7.12502
lthumb 8.5974 18.903
rfemur -20.5879 -4.17703 23.4789
rtibia 42.9357
rfoot -13.0253 0.455369
rtoes -22.5677
lfemur -1.39729 -1.49722 -9.40292
ltibia 71.6467
lfoot 0.954003 -5.18109
ltoes -36.5225
233
root 1.41723 17.0779 -4.19043 533.507 38.5704 -176.558
lowerback 29.7987 -7.45623 6.03706
upperback 18.0917 -3.58473 5.68097
thorax 4.10322 0.126559 3.75806
lowerneck -16.4365 -12.1795 -20.2539
upperneck -8.29045 -12.3297 30.9684
head 4.1833 -4.66484 12.3973
rclavicle 2.06736e-014 2.70347e-014
rhumerus -22.3205 10.3609 -81.9509
rradius 56.8884
rwrist 11.4514
rhand -19.4469 5.43558
rfingers 7.12502
rthumb 6.87374 -24.4328
lclavicle 2.06736e-014 2.70347e-014
lhumerus -8.45732 -24.2772 92.678
lradius 40.8998
lwrist 8.26539
lhand -17.6273 -10.8033
lfingers 7.12502
lthumb 8.63004 19.0003
rfemur -20.056 -4.19816 23.5611
rtibia 43.0027
rfoot -13.1224 0.438903
rtoes -21.6157
lfemur -2.06448 -1.40561 -9.37133
ltibia 72.3711
lfoot 0.756381 -4.95085
ltoes -37.5855
234
root 1.50371 17.0832 -4.24298 533.324 38.513 -176.561
lowerback 29.7999 -7.41237 6.05523
upperback 18.1226 -3.50906 5.70837
thorax 4.13502 0.172945 3.76061
lowerneck -16.504 -12.2402 -20.3777
upperneck -8.19829 -12.4074 30.9103
head 4.24022 -4.69504 12.3811
rclavicle -1.74931e-013 -1.11319e-014
rhumerus -22.2011 10.7269 -82.0335
rradius 57.3693
rwrist 11.4756
rhand -19.4395 5.52723
rfingers 7.12502
rthumb 6.88091 -24.3409
lclavicle -1.74931e-013 -1.11319e-014
lhumerus -8.60782 -23.6391 92.6193
lradius 39.7144
lwrist 8.61164
lhand -17.6164 -10.6993
lfingers 7.12502
lthumb 8.6405 19.1039
rfemur -19.5232 -4.23098 23.6453
rtibia 43.073
rfoot -13.2718 0.403117
rtoes -20.8483
lfemur -2.72703 -1.3263 -9.35913
ltibia 73.0289
lfoot 0.524226 -4.79304
ltoes -38.2735
235
root 1.58266 17.0868 -4.29579 533.156 38.4602 -176.557
lowerback 29.8232 -7.38794 6.15288
upperback 18.1438 -3.43574 5.71052
thorax 4.14309 0.226204 3.69635
lowerneck -16.5818 -12.3172 -20.4783
upperneck -8.12108 -12.506 30.8597
head 4.29931 -4.73463 12.3588
rclavicle 1.90833e-014 2.70347e-014
rhumerus -22.0789 11.045 -82.1229
rradius 57.884
rwrist 11.4991
rhand -19.3818 5.68314
rfingers 7.12502
rthumb 6.93662 -24.1832
lclavicle 1.90833e-014 2.70347e-014
lhumerus -8.75208 -23.0138 92.5589
lradius 38.5457
lwrist 8.96082
lhand -17.6183 -10.4991
lfingers 7.12502
lthumb 8.63875 19.3041
rfemur -19.0364 -4.30332 23.7082
rtibia 43.1549
rfoot -13.3736 0.463441
rtoes -19.8926
lfemur -3.45075 -1.2385 -9.38665
ltibia 73.6408
lfoot 0.287197 -4.64775
ltoes -38.5843
236
root 1.66003 17.0901 -4.34873 532.968 38.4215 -176.564
lowerback 29.8609 -7.36284 6.23453
upperback 18.1705 -3.36338 5.70164
thorax 4.15194 0.278694 3.62961
lowerneck -16.6484 -12.375 -20.5645
upperneck -8.06715 -12.574 30.8069
head 4.34099 -4.76045 12.3393
rclavicle 4.92986e-014 8.42847e-014
rhumerus -21.9312 11.4491 -82.2234
rradius 58.3815
rwrist 11.4725
rhand -19.3536 5.82007
rfingers 7.12502
rthumb 6.9638 -24.0454
lclavicle 4.92986e-014 8.42847e-014
lhumerus -8.92603 -22.4479 92.4785
lradius 37.4351
lwrist 9.34186
lhand -17.7239 -10.1334
lfingers 7.12502
lthumb 8.53676 19.674
rfemur -18.5498 -4.39624 23.7616
rtibia 43.2498
rfoot -13.5217 0.515401
rtoes -19.139
lfemur -4.14418 -1.13383 -9.43742
ltibia 74.1666
lfoot 0.0434705 -4.57101
ltoes -38.485
237
root 1.73651 17.0904 -4.40163 532.817 38.3742 -176.533
lowerback 29.8827 -7.3418 6.34023
upperback 18.1886 -3.29288 5.70907
thorax 4.15779 0.330595 3.56734
lowerneck -16.7066 -12.4385 -20.6658
upperneck -8.00641 -12.6516 30.7598
head 4.38749 -4.79164 12.323
rclavicle 6.04305e-014 6.36111e-015
rhumerus -21.7993 11.8575 -82.3071
rradius 58.9031
rwrist 11.4194
rhand -19.2837 5.96162
rfingers 7.12502
rthumb 7.03129 -23.9016
lclavicle 6.04305e-014 6.36111e-015
lhumerus -9.1127 -21.956 92.4115
lradius 36.3435
lwrist 9.81692
lhand -17.8631 -9.67989
lfingers 7.12502
lthumb 8.40245 20.133
rfemur -18.081 -4.48177 23.8471
rtibia 43.3634
rfoot -13.6564 0.542441
rtoes -18.3429
lfemur -4.87079 -1.02135 -9.45692
ltibia 74.6382
lfoot -0.195118 -4.63298
ltoes -37.9815
238
root 1.81302 17.0904 -4.45462 532.624 38.3423 -176.534
lowerback 29.9121 -7.30143 6.41524
upperback 18.2255 -3.20215 5.70289
thorax 4.18144 0.392834 3.50248
lowerneck -16.7937 -12.5142 -20.7444
upperneck -7.94445 -12.7441 30.7186
head 4.44202 -4.82714 12.3009
rclavicle -2.8625e-014 9.54166e-015
rhumerus -21.6335 12.2205 -82.3956
rradius 59.405
rwrist 11.4032
rhand -19.2117 6.15378
rfingers 7.12502
rthumb 7.10078 -23.7071
lclavicle -2.8625e-014 9.54166e-015
lhumerus -9.29182 -21.5233 92.3451
lradius 35.2655
lwrist 10.3622
lhand -18.033 -9.20413
lfingers 7.12502
lthumb 8.23852 20.6152
rfemur -17.5944 -4.56112 23.8993
rtibia 43.4813
rfoot -13.8328 0.606763
rtoes -17.4155
lfemur -5.56838 -0.896954 -9.51078
ltibia 75.0297
lfoot -0.438015 -4.80369
ltoes -37.3149
239
root 1.88952 17.0887 -4.5076 532.465 38.3059 -176.53
lowerback 29.9036 -7.25675 6.48208
upperback 18.2509 -3.11831 5.70498
thorax 4.20836 0.447797 3.4506
lowerneck -16.8615 -12.5789 -20.8305
upperneck -7.87839 -12.8239 30.6522
head 4.48837 -4.85916 12.2734
rclavicle -3.18055e-014 -7.95139e-014
rhumerus -21.4613 12.6121 -82.477
rradius 59.8669
rwrist 11.4177
rhand -19.1616 6.36813
rfingers 7.12502
rthumb 7.14915 -23.4911
lclavicle -3.18055e-014 -7.95139e-014
lhumerus -9.50739 -21.1161 92.2851
lradius 34.221
lwrist 10.9849
lhand -18.1548 -8.72232
lfingers 7.12502
lthumb 8.12096 21.1016
rfemur -17.1416 -4.64811 23.9658
rtibia 43.6072
rfoot -14.0034 0.630486
rtoes -16.7465
lfemur -6.33236 -0.757774 -9.54776
ltibia 75.3734
lfoot -0.681137 -5.10003
ltoes -36.3565
240
root 1.96609 17.0878 -4.56108 532.325 38.2645 -176.501
lowerback 29.8739 -7.21377 6.5648
upperback 18.2793 -3.036 5.70536
thorax 4.24639 0.503612 3.3886
lowerneck -16.9039 -12.6416 -20.9006
upperneck -7.84828 -12.8997 30.6081
head 4.52141 -4.89128 12.2527
rclavicle 3.02153e-014 -1.06549e-013
rhumerus -21.2942 12.9966 -82.5731
rradius 60.3378
rwrist 11.4583
rhand -19.0758 6.48648
rfingers 7.12502
rthumb 7.23201 -23.3699
lclavicle 3.02153e-014 -1.06549e-013
lhumerus -9.73835 -20.7999 92.2177
lradius 33.2165
lwrist 11.7108
lhand -18.2359 -8.22931
lfingers 7.12502
lthumb 8.04265 21.5977
rfemur -16.6901 -4.72909 24.0476
rtibia 43.7291
rfoot -14.2011 0.667842
rtoes -15.8794
lfemur -7.11327 -0.646947 -9.57409
ltibia 75.6471
lfoot -0.935962 -5.45896
ltoes -35.5571
241
root 2.04212 17.0871 -4.61478 532.193 38.2368 -176.474
lowerback 29.8519 -7.16219 6.651
upperback 18.2997 -2.94423 5.69251
thorax 4.272 0.563726 3.30841
lowerneck -16.9643 -12.7004 -20.9519
upperneck -7.80108 -12.9725 30.573
head 4.56147 -4.91964 12.2323
rclavicle 3.18055e-015 -1.95604e-013
rhumerus -21.1303 13.3789 -82.6741
rradius 60.8255
rwrist 11.4776
rhand -18.9531 6.61733
rfingers 7.12502
rthumb 7.35038 -23.235
lclavicle 3.18055e-015 -1.95604e-013
lhumerus -9.97419 -20.4926 92.1357
lradius 32.2074
lwrist 12.4659
lhand -18.2593 -7.8091
lfingers 7.12502
lthumb 8.02012 22.0187
rfemur -16.2488 -4.81601 24.1302
rtibia 43.8542
rfoot -14.4015 0.707018
rtoes -15.1098
lfemur -7.90974 -0.541627 -9.61843
ltibia 75.8595
lfoot -1.24738 -5.85516
ltoes -34.8757
242
root 2.11883 17.0851 -4.66897 532.043 38.1979 -176.476
lowerback 29.8207 -7.10484 6.69256
upperback 18.3171 -2.86018 5.67865
thorax 4.29958 0.614995 3.25174
lowerneck -17.0035 -12.7537 -21.0238
upperneck -7.7602 -13.0374 30.5549
head 4.59816 -4.94544 12.2245
rclavicle 1.27222e-014 1.09729e-013
rhumerus -20.9743 13.7169 -82.804
rradius 61.2568
rwrist 11.5863
rhand -18.8636 6.7353
rfingers 7.12502
rthumb 7.43681 -23.114
lclavicle 1.27222e-014 1.09729e-013
lhumerus -10.2479 -20.2069 92.0664
lradius 31.2243
lwrist 13.2643
lhand -18.2024 -7.50536
lfingers 7.12502
lthumb 8.075 22.3204
rfemur -15.8027 -4.90527 24.1864
rtibia 43.9799
rfoot -14.6196 0.727232
rtoes -14.3552
lfemur -8.69906 -0.444502 -9.69835
ltibia 76.0075
lfoot -1.6921 -6.23996
ltoes -34.6221
243
root 2.19373 17.0813 -4.72189 531.958 38.1708 -176.415
lowerback 29.7756 -7.05101 6.77062
upperback 18.336 -2.77271 5.67671
thorax 4.33398 0.670639 3.18776
lowerneck -17.0971 -12.8104 -21.0491
upperneck -7.68427 -13.1108 30.4851
head 4.64515 -4.97224 12.1848
rclavicle -1.145e-013 8.5875e-014
rhumerus -20.8163 14.0496 -82.9063
rradius 61.7404
rwrist 11.7461
rhand -18.7398 6.78599
rfingers 7.12502
rthumb 7.55627 -23.059
lclavicle -1.145e-013 8.5875e-014
lhumerus -10.49 -19.8995 91.9813
lradius 30.2274
lwrist 14.0141
lhand -18.0099 -7.28471
lfingers 7.12502
lthumb 8.26074 22.5338
rfemur -15.404 -5.01515 24.3019
rtibia 44.1088
rfoot -14.8241 0.755659
rtoes -13.6141
lfemur -9.52073 -0.343894 -9.73466
ltibia 76.102
lfoot -2.19785 -6.56819
ltoes -34.5075
244
root 2.27005 17.0778 -4.77501 531.843 38.1448 -176.393
lowerback 29.7307 -6.97385 6.81128
upperback 18.3485 -2.66906 5.66195
thorax 4.36152 0.730198 3.12535
lowerneck -17.1158 -12.8566 -21.0561
upperneck -7.66632 -13.1739 30.4508
head 4.66477 -5.0005 12.1591
rclavicle -6.36111e-014 -7.95139e-014
rhumerus -20.6776 14.2568 -83.0523
rradius 62.1979
rwrist 11.9469
rhand -18.6165 6.85488
rfingers 7.12502
rthumb 7.67534 -22.9858
lclavicle -6.36111e-014 -7.95139e-014
lhumerus -10.7893 -19.6113 91.8844
lradius 29.2775
lwrist 14.6274
lhand -17.7662 -7.14503
lfingers 7.12502
lthumb 8.49601 22.6641
rfemur -14.9866 -5.11828 24.3846
rtibia 44.2382
rfoot -15.0556 0.791813
rtoes -12.8423
lfemur -10.2959 -0.270604 -9.82755
ltibia 76.1138
lfoot -2.76033 -6.85635
ltoes -34.3566
245
root 2.34558 17.0736 -4.82713 531.74 38.1143 -176.361
lowerback 29.7089 -6.90167 6.82449
upperback 18.3499 -2.57653 5.65602
thorax 4.36938 0.779867 3.08941
lowerneck -17.1898 -12.9027 -21.0848
upperneck -7.60144 -13.2326 30.4099
head 4.7061 -5.02085 12.1347
rclavicle 1.27222e-014 1.04958e-013
rhumerus -20.5347 14.508 -83.1944
rradius 62.6395
rwrist 12.1804
rhand -18.4867 6.90418
rfingers 7.12502
rthumb 7.80061 -22.9319
lclavicle 1.27222e-014 1.04958e-013
lhumerus -11.1312 -19.1569 91.8031
lradius 28.3783
lwrist 15.08
lhand -17.4105 -7.10302
lfingers 7.12502
lthumb 8.83921 22.6919
rfemur -14.5821 -5.23483 24.4746
rtibia 44.3632
rfoot -15.2749 0.823195
rtoes -12.1151
lfemur -11.0889 -0.20682 -9.90794
ltibia 76.0573
lfoot -3.29665 -7.06365
ltoes -33.7604
